<svg xmlns="http://www.w3.org/2000/svg" width="154" height="154" fill="none" viewBox="0 0 154 154"><path fill="#10b981" d="M108.487 42.666c-.536.153-17.825 12.503-19.255 13.588s-4.245 4.917-3.88 5.267c.567.542 5.413-1.212 6.061-1.588.649-.376 18.718-13.134 19.603-13.746s-1.989-3.674-2.529-3.521M76.6 82.232c-7.662.44-14.68-5.666-25.626-9.092-4.594.8-13.298.358-14.549-2.478C20.06 73.086 6.256 83.449 4.112 90.417c-2.054 6.667 7.443 19.844 12.001 24.148 2.012-11.444 4.81-23.63 9.255-34.381.225-.545.729-.211.558.316a252 252 0 0 0-10.304 46.063c8.652 5.116 36.218 6.311 45.15 4.122.072-3.776.605-16.45 1.096-26.256a139 139 0 0 1-11.462-1.378c-.606-.1-.339-.741.255-.661 7.141.958 21.593 2.638 29.94.351 5.13-1.406 15.662-6.815 24.043-32.313-2.424-1.819-6.546-3.388-10.606-3.828-1.11 3.195-13.668 15.416-17.438 15.632m-4.121-53.937a54.5 54.5 0 0 1 11.115 10.374c.508.602 1.072.128 1.455-.364 5.09-6.576 7.81-10.435 14.613-16.08.536-.443-.07-1.09-.642-.69-4.663 3.258-11.831 10.123-14.892 14.971a53.3 53.3 0 0 0-11.103-9.164c-.785-.48-1.308.446-.547.953"/><path fill="#10b981" d="M77.06 27.573c1.322.154 10.91-.252 12.405-.278.746-.014.801-1.206.043-1.177-1.51.058-11.18.282-12.535.522-.555.098-.41.874.088.933m-3.164 29.16c-.666-.3-1.212.606-.606.982a86 86 0 0 1 9.698 7.03c.925.773 2.063-.698 1.149-1.478a43.4 43.4 0 0 0-10.241-6.534M93.614 41.29c.033-2.856-.246-5.916-.26-8.79 0-.727-1.013-.605-1.007.122q.037 4.564.077 9.122c-2.285 0-12.595.28-14.947.721-.248-2.612-.367-5.244-.751-7.843a.426.426 0 0 0-.843.067c.122 2.551.23 5.158.425 7.71.104 1.357.109 1.267 1.448 1.17 4.637-.338 9.359-.613 14.007-.655 1.342-.013 1.831.078 1.851-1.624M87.85 51.72c-2.565.034-5.36.074-7.91.364-2.661.306-2.474.53-2.285 2.928q.065.946.242 1.879a.48.48 0 0 0 .952 0c0-.436-.213-3.4-.154-3.473.06-.073 8.11-.638 8.97-.697.742-.051.923-1.01.185-1"/><path fill="#10b981" d="M79.267 63.449a.49.49 0 0 0-.97.085q.052 2.383.346 4.747a.564.564 0 0 0 .519.605c.076.006 5.943-.145 10.233-.55 1.097-.104.43-1.086-.212-1.037-3.03.23-6.425.352-9.468.442-.12-1.474-.224-2.88-.448-4.292"/><path fill="#94a3b8" d="M53.229 49.514c-1.479-.09-2.358 1.734-1.564 1.898.412.085.545-.946 1.497-.94a.48.48 0 0 0 .067-.958"/><path fill="#94a3b8" d="M55.296 47.878c-.221-.444-.613-.083-.51.339.65 2.597 1.388 4.043 1.94 6.928.297 1.552-1.12.606-1.164 1.819a19 19 0 0 1-.273 2.68 2.85 2.85 0 0 1-1.6-.873c-.273-.358-.745-.036-.52.443a2.64 2.64 0 0 0 2.012 1.363c-.491 3.905-2.555 4.129-5.856 3.446-.606-.125-1.214-.34-1.879-.43-.322-.043-1.148.606 1.012 1.212 0 1.049.23 6.401.528 7.383.126.412.776.363.74-.104-.192-2.425-.268-4.691-.307-7.061 6.586 1.346 6.48-2.685 7.007-7.849 1.357-.194 1.418-1.317 1.212-2.394a26.8 26.8 0 0 0-2.343-6.902m-18.637-11.11c-1.761-6.37-8.583-12.965-17.765-8.176C9.712 33.38 10.93 46.267 15.87 51.72c3.102 3.425 6.061 7.467 5.606 10.607s4.378.411 1.861-9.874c-2.011-8.22 4.558-15.056 9.697-11.837a13.5 13.5 0 0 1 3.625-3.849"/><path fill="#94a3b8" d="M45.822 51.933c1.371.814 9.895-6.063 9.37-7.643-4.21-12.678-19.873-9.39-22.384-.322-2.817 10.176 5.57 18.157 6.104 18.087.776-.102 3.216-1.667 4.122-4.716a2.6 2.6 0 0 0 2.63 0c.52-.296.145-.887-.406-.69-1.341.48-2.788-.606-2.642-2.92a2.117 2.117 0 0 1 3.206-1.796m-7.34 11.304a35 35 0 0 0-.794 6.979.413.413 0 0 0 .812.054c.464-2.233.536-4.642.946-6.964.097-.554-.86-.609-.965-.07m15.655-10.631c-.35-1.215-1.5-1.268-1.048.442.41 1.548 1.416.835 1.048-.442m37.434-.163c.366-.368 3.064-.578 3.268-.643.465-.153.358-.837-.03-.988-.782-.306-2.994.133-3.734.536s-.864 1.753-1.522 3.17c-.337.728-.79 1.397-1.085 2.14-.143.362.294.612.607.363 1.49-1.174 2.478-4.56 2.497-4.579m-1.812 6.347a.431.431 0 0 0-.182.83c5.275 1.933 4.951 5.45 5.686 6.285.158.181 1.195.567.939-.918-.518-2.997-3.383-5.956-6.443-6.197m10.801-3.54c2.05 4.998 2.152 6.232 2.018 11.639-.015.606.894.85 1.055.23.932-3.59-.16-9.342-2.31-12.372-.317-.447-.952.043-.763.503m-3.358 1.594c-.12 1.358-.978 1.348-1.819 1.6-1.05.316-.454.606 0 .716a2.167 2.167 0 0 0 2.728-2.425c-.127-.598-.858-.472-.909.109m37.621-18.899c1.164-.064.824-1.846-.328-1.781-8.321.471-16.784-.031-24.85.473-.919.056-.757 1.448.077 1.545 4.809.56 20.404.03 25.101-.237m13.528-11.115c-9.915-.328-30.82-.23-40.033.74-.752.076-.958 1.46-.055 1.454 10.547-.066 27.933-.772 40.258-.383 1.176.038.982-1.773-.17-1.811m-1.23 25.359c-12.008.996-26.399-.244-37.342 1.08-.867.104-.649 1.58.242 1.53 9.77-.584 24.244-.164 37.149-.775 1.163-.06 1.133-1.933-.049-1.835m-13.825 8.51c-5.614-.335-18.038-.298-22.742-.067-.879.044-1.006 1.526-.091 1.582 7.007.43 14.655.408 22.728.243.953-.02 1.153-1.696.105-1.758"/></svg>