<svg xmlns="http://www.w3.org/2000/svg" width="154" height="154" fill="none" viewBox="0 0 154 154"><path fill="#10b981" d="M142.335 80.96c-.695-6.798-3.021-16.64-12.505-20.138-3.551 4.507-10.636 1.437-12.481-1.622-3.712 5.804-10.02 11.249-14.191 18.3-2.014 3.406-4.442 7.415-1.978 11.155 7.411-.68 14.868-.696 22.282-.049 2.291-3.977 2.559-5.447 2.526-8.959 0-.373.536-.536.584-.08a14.36 14.36 0 0 1-2.054 9.138 16.3 16.3 0 0 1 2.702.4c.766.185.541.708-.135.643a133.4 133.4 0 0 0-25.081-.043c2.654 3.361 2.513 5.404 1.854 8.882 4.372 2.999 20.368 6.968 27.565 4.777 6.617-2.014 11.73-14.406 10.912-22.404M74.794 66.87c-4.097-2.48-12.732-3.133-17.493-.593-1.027 4.07-4.46 8.928-6.156 10.468-2.518-.613-6.901-2.664-8.54-5.81-7.273 2.324-14.385 13.386-16.487 20.807-2.918-3.07-8.55-11.058-9.724-13.77a19.2 19.2 0 0 1-8.296 3.172c2.308 16.08 12.819 30.866 20.277 30.312 5.944-.442 9.792-6.733 12.062-10.922a26.3 26.3 0 0 1-3.572-5.08c-.2-.375.076-1.086.54-.486 9.112 11.791 21.838 19.023 38.745 19.995-8.457-11.527-11.327-36.737-1.356-48.092"/><path fill="#94a3b8" d="M51.415 57.133c2.346-.314 2.497-3.945.503-5.026.309-2.064.423-4.151.34-6.236-.112-2.962-1.751-4.268-4.464-4.583a11.07 11.07 0 0 1-6.366-2.994c-3.014-2.881-2.788 1.659 0 3.637a22.4 22.4 0 0 1-7.344-2.135c-1.584-.95-2.355-.624-2.016.752a4.94 4.94 0 0 0 2.604 3.301 19.8 19.8 0 0 1-7.755-.513c-2.176-.612-3.242-.41-2.102 1.486a11.76 11.76 0 0 0 8.187 4.994c3.756.41 7.803-.644 12.18-2.335a10.73 10.73 0 0 0 3.875 6.237c.235.186.572.216.69-.125.696-2.068 3.373 0 2.36 1.935-.352.674-.858.627-1.35.632s-.33.303-.26.746c.288 1.816 3.402 8.757 4.74 9.933.32.28.617-.088.421-.405a40.4 40.4 0 0 1-4.243-9.301"/><path fill="#94a3b8" d="M38.24 51.87a2.17 2.17 0 0 0-1.685 1.355c-.251.657.092.94.54.362a3.5 3.5 0 0 1 1.433-.912c.446-.179.484-.93-.288-.806m-.914 3.681c-.118.335.153.496.444.248a1.5 1.5 0 0 1 1.177-.351c.417 0 .447-.353.113-.541a1.203 1.203 0 0 0-1.734.643m6.404-1.831a1.35 1.35 0 0 0-1.95.6c-.12.324.094.49.306.34.422-.31.934-.475 1.458-.47.267-.033.532-.283.186-.47m-.578 6.269c-.274.158-.307.578.222.453 1.772-.42 2.738-1.476 2.036-2.804-.2-.383-.75-.065-.578.318.553 1.227-1.018 1.649-1.68 2.032m.033-8.944a2.7 2.7 0 0 0-2.61.136.405.405 0 0 0 .35.713 4.4 4.4 0 0 1 2.077-.287c.464.08.651-.294.183-.562m-3.156 4.134c-.198.775-.508 3.284.426 3.54.487.134 1.939-.437 1.654-.935-.223-.388-1.263.35-1.394.13a6.4 6.4 0 0 1-.205-2.756c.01-.427-.273-.798-.481.021m46.708 14.392c-.08-1.794-2.162-4.129-3.87-4.14-.4 0-.707.584-.306.69a5.1 5.1 0 0 1 3.62 3.647c.133.466.588.532.556-.197"/><path fill="#94a3b8" d="M88.209 66.866c-.56-2.4-3.242-3.42-5.496-3.113-2.556.348-4.686 2.112-6.323 4.058-1.74 2.068-.222 5.339-3.567 6.69-.765.306-.464.838.314.6 4.048-1.237 2.502-5.35 3.994-6.793 1.491-1.443 3.07-3.02 5.215-3.54 2.145-.519 4.387.284 5.263 2.362.164.396.696.157.6-.264"/><path fill="#94a3b8" d="M84.088 70.822c.323.69.8.438.622-.23-.429-1.62-1.898-3.917-3.886-3.685-.4.047-.33.666 0 .756 2.3.625 2.754 2.063 3.264 3.159m-5.431-2.351c-.426.07-.54.737 0 .757a3.24 3.24 0 0 1 3.173 2.41c.205.416.536.416.54-.146.009-1.654-1.95-3.31-3.713-3.02M7.668 70.438c-.938-3.648-1.135-4.747-1.08-7.08.012-.54-.47-.41-.654.298a11.68 11.68 0 0 0 1.08 7.1c.195.39.757.082.654-.318m-3.21-4.383c0-.621-.605-.346-.622.049-.07 3.053.76 6.06 2.384 8.647a20.8 20.8 0 0 1 2.118 5.063c.14.497.755.578.676-.4a14.4 14.4 0 0 0-2.046-5.23 17.6 17.6 0 0 1-2.51-8.129m10.678 1.174c-.368-.638-.81-.182-.54.306 1.743 3.133-2.03 7.104.54 9.998a.383.383 0 0 0 .613-.428c-1.679-3.215 1.22-6.707-.613-9.877m-3.863-3.905c-.008-.356-.466-.681-.605 0-.268 1.302-.114 5.19.729 6.27a.353.353 0 0 0 .621-.271 33.6 33.6 0 0 1-.745-5.999m-2.216-.959c0-.4-.46-.448-.605 0-.578 1.818-.365 5.662.707 7.35.23.368.869.217.766-.264a23 23 0 0 1-.868-7.086M98.81 90.123c.4.163.506-.468.27-.69-1.367-1.296-5.404-1.47-7.436.055a.336.336 0 0 0 .291.605c3.464-1.357 5.258-.625 6.875.03m-2.994 5.942c3.544-.584 3.85.387 4.966.465a.39.39 0 0 0 .423-.353c.085-.942-3.564-1.71-5.611-.706-.403.197-.167.658.222.594m-2.048-1.708c3.627-1.125 4.86-.414 6.885.14.404.111.508-.487.237-.707-1.425-1.165-5.36-1.153-7.333-.033-.352.2-.228.736.21.6m-1.08-1.892c3.243-.985 4.68-.51 6.847-.153a.396.396 0 0 0 .319-.69c-1.388-1.207-5.813-1.05-7.458.255-.358.287-.119.713.291.588M145.95 43.39a10.64 10.64 0 0 1-5.463 1.081c-2.038 3.966-5.035 10.88-10.471 10.2-1.778-.221-2.785-1.587-3.848-2.864-.292-.351-.619-.031-.459.313a8.2 8.2 0 0 0 2.545 3.113c-.541 1.149-1.081 4.188-.832 5.312a.306.306 0 0 0 .599 0q.054-.796.244-1.572c3.647.756 8.403 3.292 10.992 7.517 7.609-1.621 8.279-10.085 3.961-13.284 5.289-1.348 5.083-8 2.732-9.816m-12.969 3.766c.612.16 1.225-1.242.718-1.56-.674-.42-1.552 1.341-.718 1.56"/><path fill="#94a3b8" d="M136.634 48.852c.454.028.958-.892.837-1.255-.347-1.042-1.912 1.189-.837 1.255m1.211-3.479c.381.228.68.57.853.979.103.367.6.486.595-.168a1.85 1.85 0 0 0-1.167-1.551c-.58-.218-1.06.283-.281.74m-2.968-1.285c.697.23.919-.369.368-.774a2.56 2.56 0 0 0-2.784.06c-.259.276-.118.54.23.486a3.45 3.45 0 0 1 2.186.227m-5.355 5.607a2.083 2.083 0 0 0 1.723 2.459.3.3 0 0 0 .263.038.3.3 0 0 0 .202-.322.3.3 0 0 0-.281-.257 1.4 1.4 0 0 1-.881-.674 1.4 1.4 0 0 1-.114-1.104c.233-1.337-.76-1.067-.912-.14m5.08 1.127c.637-.302 1.205-2.779.885-3.108-.495-.51-.536 1.655-1.242 2.27-.307.265-.689-.497-1.081-.27-.48.279.568 1.52 1.438 1.108m-39.451 69.433c-.675.595.44 1.387 1.08.972 7.658-4.944 16.008.2 14.084 8.987a.76.76 0 0 0 .468.949.756.756 0 0 0 .959-.445c3.922-9.882-8.713-17.413-16.59-10.463"/><path fill="#94a3b8" d="M112.244 117.416c-6.483-5.743-19.839-6.145-26.57-.453-14.165 11.98-1.163 32.093 16.819 28.577 13.619-2.66 19.973-19.074 9.751-28.124m-7.944 26.098c-15.036 4.859-30.704-10.902-19.212-23.919 5.83-6.605 19.044-6.885 25.751-1.405 9.316 7.609 4.641 21.71-6.539 25.324m22.233-99.256c.24.728.23.973 1.248.335 1.59-.996 3.113-1.875 4.069-5.09a12.51 12.51 0 0 0 12.791 3.406c4.62-1.427 8.868-12.04-3.14-12.797.4-6.34-10.322-6.382-11.511-1.286-3.859-2.79-8.647-.536-9.279 1.95 3.783 10.323.541 20.482-2.162 25.984-.756 1.54.23 1.302.46.848 1.735-3.47 3.09-6.875 5.513-9.987.423-.543.049-.75-.411-.967a1.45 1.45 0 0 1-.681-.907 1.45 1.45 0 0 1 .184-1.12c.627-1.431 2.454-1.78 2.919-.37M48.043 61.71a5.47 5.47 0 0 1-3.994 2.702c-6.171.751-7.622-8.203-8.57-12.472-.158-.709-.6-.325-.541.076.448 4.74 2.329 13.808 8.647 13.366.283 1.703.332 3.438.145 5.155-.042.416.395.832.719-.054.395-1.08.352-3.829.119-5.264a6.25 6.25 0 0 0 3.972-3.177c.224-.43-.272-.71-.497-.332m35.047 51.113c3.782-.766 13.886-4.126 16.833-6.679.48-.417-.065-1.297-.648-1.016-7.428 3.571-10.809 4.323-18.315 6.565-8.236-11.278-11.82-24.843-1.875-38.618.514-.713-.531-1.37-1.082-.67-8.69 11.069-8.652 25.135.676 38.91 1.468 2.169 1.566 2.085 4.41 1.508"/><path fill="#94a3b8" d="M43.924 17.79c16.342-10.44 36.12-12.367 53.772-3.93 19.789 9.46 27.014 25.325 15.197 45.076-4.71 7.872-15.449 17.492-16.812 25.621-.154.907 1.087 1.266 1.248.345 1.326-7.593 11.203-16.487 15.704-23.43 12.431-19.18 8.282-36.213-11.638-47.292-17.785-9.888-41.621-9.586-58.056 2.86-.613.465-.133 1.21.585.75"/><path fill="#94a3b8" d="M91.076 43.001c5.6 6.013 2.35 14.33-3.582 18.763-.644.481.124 1.422.842.892 5.993-4.415 9.724-12.428 5.058-19.228-6.547-9.537-21.244-7.63-30.264-.153-5.543-5.992-13.819-16.034-18.724-22.701-.508-.69-1.205-.173-.632.612 4.866 6.71 12.135 16.317 17.73 22.697 1.033 1.178 1.323 1.496 2.584.498 7.327-5.803 19.71-9.196 26.988-1.38m16.948-15.883C98.569 13.651 75.896 9.376 61.548 16.899a.816.816 0 0 0 .675 1.486c17.591-6.728 32.083-1.793 44.817 9.657.763.686 1.613-.027.984-.924m-7.279 76.377c.836 1.46 2.085.689 1.204-.713s-1.819-2.946-2.761-4.399c-.35-.541-1.308 0-.99.584a256 256 0 0 0 2.547 4.528"/></svg>