<svg xmlns="http://www.w3.org/2000/svg" width="154" height="154" fill="none" viewBox="0 0 154 154"><path fill="#10b981" d="M51.429 37.826c-.173.172.765.984.898 1.078a2.097 2.097 0 0 0 3.313-1.711 2.24 2.24 0 0 0-1.768-2.106 3.08 3.08 0 0 0-5.697-2.21 5.295 5.295 0 0 0-8.087 6.537 4.025 4.025 0 0 0-4.662 6.226 4.71 4.71 0 0 0-3.78 1.239 5.76 5.76 0 0 0-2.031 4.61c.083 2.093 1.987 4.584 4.064 4.46a56 56 0 0 0 6.898-1.815 3.73 3.73 0 0 0 1.761-1.032c1.582-1.953 1.995-6.07 1.99-8.347 0-1.022-.193-2.034-.212-3.043a3.23 3.23 0 0 0 2.527-1.256 3.63 3.63 0 0 0 .701-2.424 3.07 3.07 0 0 0 4.084-.206m4.035 12.717a13.4 13.4 0 0 0-3.261-3.352c.097.07-1.149 1.148-1.275 1.23-.39.263-1.088.39-1.37.76a3.1 3.1 0 0 0-.269 1.459 37 37 0 0 0-.18 2.267 36 36 0 0 0 5.932-.776c.722-.089 1.06-.675.423-1.589m58.878-17.846a7.94 7.94 0 0 1 4.147 6.298.36.36 0 0 0 .72 0 7.3 7.3 0 0 0-4.619-6.723c-.282-.111-.537.28-.248.425m6.89 5.469q.084-.888.017-1.778c-.036-.479-.779-.485-.75 0a10.7 10.7 0 0 0 .263 1.842c.068.279.444.19.47-.064m-27.753 25.16c-.68-.766-3.403-2.346-4.817-4.382-4.337-6.249-5.679-13.685-5.698-21.295.023-.01 2.22-1.571 3.773-1.643a6.3 6.3 0 0 1 3.077.706c-.034.954.068 1.908.302 2.834 1.225 6.84 4.66 14.505 11.442 15.985a.27.27 0 0 0 .281-.093.267.267 0 0 0-.139-.42 15.12 15.12 0 0 1-7.85-7.504c-2.698-5.427-2.553-9.078-3.271-11.047-.318-.871-2.845-1.612-4.022-1.546-1.243.07-3.993 1.393-4.127 1.853-1.516 5.213.012 11.214 1.896 16.24a31 31 0 0 0 3.68 6.91c1.697 2.417 4.166 4.05 5.176 4.098a.41.41 0 0 0 .297-.696m8.279-7.713c-1.204 1.86.3 4.627 2.338 5.076 1.987.439 4.6-.475 5.218-2.55.109-.365-.423-.716-.678-.392a4.44 4.44 0 0 1-4.005 1.922c-2.013-.234-2.425-2.215-2.297-3.905.024-.318-.423-.387-.576-.15m30.957 28.253c-.281-4.843-.746-8.54-2.958-13.247-2.458-5.233-6.319-10.414-11.359-13.41-2.592-1.54-5.67-2.384-8.631-1.506-.295.087-.255.582.076.556 7.388-.573 13.17 5.234 16.837 11.037 3.575 5.662 4.533 9.877 4.87 15.843.01 1.818.16 3.632.449 5.427.105.486.781.331.82-.113.077-1.53.042-3.063-.104-4.587m-1.413 4.515c-.921.233-1.863.371-2.812.412-.469-.015-1.051-.212-1.563-.212-.181-3.365-2.482-8.775-4.518-12.044-2.227-3.578-5.219-7.19-8.975-9.225-.266-.145-.565.212-.331.425l.042.042a.31.31 0 0 0-.144.26c-.149 8.34 2.691 16.653 6.856 23.714.421.715.907 1.937 1.679 2.308a.428.428 0 0 0 .613-.353c-.03-.811-.771-1.573-1.178-2.254-3.882-6.509-7.198-15.6-7.329-23.206 4.682 4.447 8.117 7.914 10.619 14.507.752 1.984 1.077 4.036 1.684 6.049a.56.56 0 0 0 .306.49c1.703.68 4.212 1.008 5.451-.24.304-.302-.026-.734-.4-.673"/><path fill="#10b981" d="M120.957 93.933c-2.728 1.394-4.324 3.829-10.357 4.205-4.134.257-8.45-.068-12.275-1.744 0-.026-1.75-2.86-2.833-8.687-2.638-14.15-1.276-18.607.548-27.397.058-.274-.362-.5-.486-.212a34.3 34.3 0 0 0-2.22 9.035 50.6 50.6 0 0 0 1.048 18.694 48.5 48.5 0 0 0 3.112 8.901c3.671 2.749 9.107 2.802 13.504 2.499a16.6 16.6 0 0 0 5.828-1.462c1.522-.705 3.828-1.778 4.594-3.376a.335.335 0 0 0-.463-.456M76.03 4.11c-.106-.46-.738-.312-.774.107-.197 2.27.288 4.712.613 6.959.341 2.399.81 4.779 1.404 7.128.109.425.727.242.655-.18C76.118 7.48 76.744 7.228 76.029 4.11m8.204 13.021c4.124-4.551 6.832-6.886 8.181-8.576.24-.298-.07-.846-.448-.58-2.728 1.914-6.228 6.126-8.251 8.754-.229.3.268.679.518.402m5.571.466c2.535-1.097 5.36-2.029 7.639-3.613.33-.23.14-.825-.291-.689-2.648.855-5.12 2.515-7.529 3.878-.22.128-.07.533.181.424m-21.426-2.862a42 42 0 0 0-4.054-4.817.394.394 0 0 0-.612.476 39 39 0 0 0 3.707 4.71c1.336 1.62 2.712 3.189 4.086 4.785.255.296.791-.108.548-.425-1.215-1.582-2.42-3.173-3.675-4.73m-2.188 7.733a19.9 19.9 0 0 0-7.302-2.745c-.341-.046-.363.468-.077.57 2.4.77 4.738 1.716 6.995 2.834a.383.383 0 0 0 .383-.66M24.564 145.598c-1.105-.229-1.865.16-2.9-.656-1.521-1.198-3.192-5.211-4.204-6.662-.168-.241-.596-.103-.501.213.377 1.261 2.534 6.892 5.176 8.023.654.163 1.33.213 2.002.149.408.338-3.876 1.621-4.671 1.583a27 27 0 0 1-3.109-.536c-2.136-1.731-4.038-4.9-5.344-7.314.353-2.709.866-3.252.383-3.359a.25.25 0 0 0-.152.014.26.26 0 0 0-.118.096c-.353.526-1.082 2.691-.811 3.097a13.2 13.2 0 0 0 2.246 4.742c.842 1.129 2.406 3.864 6.523 4.305 2.004.215 5.997-1.125 6.4-1.564.762-.832.047-1.932-.92-2.131M31.748 37.56c.369-1.538.99-3.004 1.838-4.34a24.5 24.5 0 0 1 3.092-3.55.33.33 0 0 0-.397-.516c-2.821 1.602-4.518 5.18-5.168 8.223-.09.42.536.597.635.183m-.889-6.676a7.56 7.56 0 0 0-2.043 4.703c-.046.406.585.396.638 0 .303-1.567.942-3.05 1.873-4.346a.298.298 0 0 0-.469-.357"/><path fill="#94a3b8" d="M105.306 48.634c.856-.144 1.372-1.138.817-1.275-.27-.068-.315.203-1.051.427a3 3 0 0 1-.906.024.296.296 0 0 0-.291.295c.003.293.616.716 1.431.53"/><path fill="#94a3b8" d="M103.55 51.637c-.176.356-.854 2.518-1.072 3.221-.089.282.35.476.484.212.33-.651 1.318-2.664 1.441-3.032 2.197.717 4.452-.745 4.684-2.424.039-.294-.327-.637-.572-.334-.775.954-1.514 1.898-2.875 1.88a3.09 3.09 0 0 1-2.828-2.033c-.894-2.235-.369-4.89.518-7.035.076-.194-.212-.28-.316-.134-2.001 2.799-2.384 7.921.536 9.679"/><path fill="#94a3b8" d="M104.444 44.029c.153-.177-.046-.486-.264-.343-.672.44-1.608 1.171-1.608 2.078 0 .695.975 1.435 1.543.801a.27.27 0 0 0 0-.356c-.327-.367-.864-.294-.525-.92q.358-.676.854-1.26m1.637-.919a.3.3 0 0 0-.374.123q-.216.257-.349.563a.356.356 0 0 0 .212.452c.78.138.798-1.012.511-1.138m.72.694a.323.323 0 0 0 .441.194.3.3 0 0 0 .135-.117 1.45 1.45 0 0 0-.091-1.418 1.22 1.22 0 0 0-1.118-.754.25.25 0 0 0-.24.216.25.25 0 0 0 .174.271c.278.081.468.522.542.774.075.25.051.566.157.834"/><path fill="#94a3b8" d="M108.514 41.006c-.325 1.77 1.014 4.76 3.179 4.624a12.1 12.1 0 0 0-2.033 4.532 11.2 11.2 0 0 0-.398 5.253c.07.34.525.212.558-.077.135-1.716.435-3.415.896-5.074.332-1.097 2.519-4.23 3.343-6.78a4.9 4.9 0 0 0-.076-2.85 2.676 2.676 0 0 0-2.996-1.812c-.291-1.199-2.121-2.192-3.878-1.486-.593-1.039-2.057-1.27-3.221-1.225-1.474.059-2.297 1.328-2.337 2.726-.094 3.206 4.517 2.894 6.963 2.17m-25.26-6.177c-1.824-.197-1.827-2.81-1.856-4.172-.03-1.47.388-2.89.379-4.345a.365.365 0 0 0-.676-.183c-1.014 1.876-1.684 10.141 2.235 9.307.373-.08.245-.572-.082-.608"/><path fill="#94a3b8" d="M82.938 30.416c.306-1.807.954-3.527 1.274-5.312a.34.34 0 0 0-.618-.262 10.5 10.5 0 0 0-1.243 5.5c-.003.329.53.416.587.074m2.944-5.999a8.78 8.78 0 0 0-1.93 5.807.312.312 0 0 0 .613.084c.3-.938.516-1.9.836-2.833s.735-1.814.984-2.763a.307.307 0 0 0-.503-.295m3.772.68c.2-.29-.183-.597-.455-.455-1.961 1.029-3.096 3.55-3.522 5.606a.27.27 0 0 0 .52.142c1.225-3.152 2.514-3.928 3.457-5.293m.317 3.965c-1.83.602-3.162 2.88-3.576 4.67a.323.323 0 0 0 .244.388c.471.107.405-.593 1.99-2.604a18 18 0 0 0 1.675-2.024.298.298 0 0 0-.333-.43m35.606 66.068a1.98 1.98 0 0 0 .898 2.247c1.56.898 3.926.675 5.609.334 1.614-.327 2.974-.863 2.974-2.726a8.33 8.33 0 0 0-2.461-5.312.49.49 0 0 0-.639-.032.49.49 0 0 0-.132.627c.618 1.203 1.552 2.164 1.94 3.5.159.546.391 1.536.036 2.08-.355.543-1.416.689-2.008.81a9.9 9.9 0 0 1-4.058.014c-2.006-.428-.891-2.144-.944-3.512a.28.28 0 0 0-.544-.077c-.11.264-.23.557-.346.863-1.225.168-.689-1.225-.493-1.753a9 9 0 0 1 .871-1.761c.166-.258-.189-.482-.397-.307-1 .836-2.068 2.253-1.876 3.649.1.737.893 1.492 1.57 1.355m17.076 40.137c-.038-.058-7.53-9.638-10.337-14.661-6.285-11.266-9.12-20.904-10.984-24.972-.108-.236-.444-.06-.399.168.838 4.252 4.108 12.299 5.879 16.27 3.204 7.178 9.095 18.133 14.768 22.971a6.75 6.75 0 0 1-3.276 2.136c-2.236-2.178-11.403-8.141-22.42-25.568-2.063-3.264-3.828-6.638-5.8-9.917-.128-.212-.516-.073-.425.175 2.087 5.686 5.722 11.204 9.254 16.241-.113.313-.638 2.626-.638 2.626a58 58 0 0 1-9.337-.932 42 42 0 0 1-8.983-2.798c-3.4-1.413-3.633-2.332-3.475-8.466a55 55 0 0 1 1.447-10.441.306.306 0 0 0-.214-.378.306.306 0 0 0-.378.214 36.6 36.6 0 0 0-1.961 11.395c-.063 4.419-.068 6.739 3.04 8.207 5.661 2.671 14.013 4.735 20.076 3.935.592 3.115.81 6.29.648 9.458a.535.535 0 0 0 .899.371 11.86 11.86 0 0 0 3.068-7.649c5.919 7.334 12.654 13.151 14.646 14.343 0 .012-.467 5.24-3.588 6.238a2.12 2.12 0 0 0-1.386.95c-.706 1.387 7.375 1.109 7.401 1.096.819-.409 3.503-9.485 2.475-11.012"/><path fill="#94a3b8" d="M107.477 100.521a53.4 53.4 0 0 1-2.401 10.044.56.56 0 0 0 .383.671c3.3 1.009 6.373 2.666 9.648 3.691.32.1.452-.332.212-.508-2.098-1.539-6.761-3.369-9.041-4.076a43.3 43.3 0 0 0 1.717-9.75c.018-.296-.478-.372-.518-.072M76.093 25.76a.343.343 0 0 0-.568.33c.345 1.37 1.32 2.545 1.189 5.143a9.13 9.13 0 0 1-1.7 4.877c-.224.307.282.7.529.408a8.84 8.84 0 0 0 2.25-5.112c.144-1.836-.256-4.35-1.7-5.646"/><path fill="#94a3b8" d="M74.887 30.224a.323.323 0 0 0 .637 0c.094-2.037-.279-4.755-1.914-6.213a.316.316 0 0 0-.525.306c.441 1.473 1.52 2.676 1.802 5.907m-1.781-.558c.046.425.699.454.694 0-.021-2.047-.575-5.149-2.505-6.279a.331.331 0 0 0-.482.37c.522 1.391 1.924 2.512 2.293 5.909m-2.548-2.491c1.085 3.172.39 4.104.99 4.103a.28.28 0 0 0 .278-.278 10.3 10.3 0 0 0-.359-4.086 7.1 7.1 0 0 0-1.85-3.4c-.263-.215-.824-.021-.661.383.458 1.142 1.199 2.101 1.602 3.278m-.253 7.533c.05.258.464.198.46-.062-.053-2.012-.66-4.509-2.518-5.612a.362.362 0 0 0-.491.493c.634 1.117 2.018 2.41 2.55 5.181m4.368 2.444a9.3 9.3 0 0 0-.66 2.787 30.2 30.2 0 0 1-3.437 8.825c-2.091 3.752-8.712 9.587-8.712 9.587s-1.378-2.633-1.585-7.713a22.58 22.58 0 0 0 9.86-11.032c.6-1.226.988-2.546 1.148-3.901.021-.455-.71-.694-.901-.245-.656 1.544-1.761 7.91-8.295 12.722a23.3 23.3 0 0 1-12.586 4.374c.057-.494 0-.995.045-1.487.045-.491.153-1.039.233-1.56 4.011-.819 4.51-7.886 1.602-10.853-.286-.294-.699.076-.536.415.964 2.038 1.723 3.953 1.312 6.26a4.5 4.5 0 0 1-1.556 2.99 2.8 2.8 0 0 1-3.48-.424c-.192-.18-.542.057-.383.293a2.91 2.91 0 0 0 2.47 1.39A5 5 0 0 0 49 52.589q-1.284.04-2.561-.083c-.424-.045-5.02.318-7.094 1.627-1.063-.13-4.14 1.105-4.998 1.531a27.4 27.4 0 0 0-7.078 5.045c-.427.423-1.133.96-1.094 1.638a2.43 2.43 0 0 0 1 1.466c-2.18 1.927-3.822 4.934-3.338 7.833.58 3.47 3.665 6.48 6.687 8.057a.361.361 0 0 0 .436-.566c-2.216-2.339-5.14-3.9-5.95-7.28-.745-3.11 1.205-5.188 2.803-7.503a16.4 16.4 0 0 0 2.646 2.24.353.353 0 0 0 .477-.48c-.419-.742-3.593-3.737-3.518-4.049.122-.512 3.026-2.853 3.733-3.37a27.2 27.2 0 0 1 6.892-3.63 15.2 15.2 0 0 0-4.441 5.7c-1.238 2.79-1.487 5.87-1.582 8.888-.54 17.152-2.248 15.846-3.578 20.084-.024.057-1.487 6.175-1.7 7.065-3.124 10.561-5.13 17.397-10.165 28.511-2.611 5.763-3.934 7.93-5.113 10.65-.184.425.59 1.55 2.794 2.182.638.183 2.633 0 3.205-.718.572-.719 3.312-4.345 4.876-6.485 1.914-2.616 12.593-18.962 15.299-24.899 1.378-3.022 3.244-9.48 3.612-9.7.14-.084.32.076.368.23.05.153-.73 3.484-1.08 4.989-.213.919-.516 2.975-.212 3.375a23 23 0 0 0 2.214 2.277 29 29 0 0 0-4.747 2.229c-1.814 1.318-3.27 3.905-4.401 5.803-.4.672-2.293 4.365-2.609 5.1a.61.61 0 0 0 .39.9c2.918-.158 5.917-1.135 8.694-1.991a65 65 0 0 0 8.903-3.445c2.491-1.191 5.259-2.608 6.942-4.873 2.188-2.947-4.513-21.273-6.989-21.711-.213-.038-3.207 3.418-15.154 1.598-1.378-.21-2.476-1.108-3.802-1.498 1.914-2.705 2.326-6.243 2.71-9.424 1.148-9.53-.537-16.573 4.243-22.062a14.33 14.33 0 0 1 9.445-4.805c.08 0 3.789 2.027 13.486-2.05-.09 1.608.026 3.22.344 4.799.179.874 1.14 4.084 1.639 4.628-3.354 2.796-5.495 3.446-7.533 4.587a.7.7 0 0 0-.17.311c-.465 2.826-4.576 19.856-4.93 21.615a.503.503 0 0 0 .97.266c.665-1.777 4.579-19.956 4.461-21.633 3.095-.536 5.954-2.701 8.011-4.949.153-.169-.161-1.209-.344-1.646.076.059 7.033-5.725 9.315-9.495a30.2 30.2 0 0 0 2.748-5.899c.351-1.03 1.476-5.322 1.193-6.298a.382.382 0 0 0-.681-.12"/><path fill="#94a3b8" d="M50.25 44.544c.453.326 1.675.85 1.826-.077.067-.406-.838-2.184-1.13-2.622-.135-.202-.523-.077-.425.177.208.536.7 2.08.69 2.095s-.444-.188-.674-.26c-.43-.135-.612.452-.286.687m-1.628-1.762a1.74 1.74 0 0 0 0-1.062.366.366 0 0 0-.7 0 1.75 1.75 0 0 0 0 1.062.406.406 0 0 0 .7 0m-1.243-1.487c.513-.91 1.188-.903 1.551-1.267a.293.293 0 0 0 0-.406.3.3 0 0 0-.128-.076c-.898-.184-1.621.847-1.899 1.551-.102.26.34.44.476.198m-.283 3.612c.502 1.852 2.36 2.713 3.25 2.093a.355.355 0 0 0-.084-.638 3.9 3.9 0 0 1-1.604-.45 9 9 0 0 1-1.194-1.225.214.214 0 0 0-.368.22"/></svg>