<svg xmlns="http://www.w3.org/2000/svg" width="154" height="154" fill="none" viewBox="0 0 154 154"><path fill="#10b981" d="M128.834 90.705c-14.835.81-1.827-6.695-13.759-8.308-5.107-.69-15.944.735-20.843 2.363-.192.064-1.17 5.025-1.268 5.451-.468 2.005-4.147 13.512-4.65 15.558 6.448 2.239 11.538 2.101 18.335 1.558.438-.034.484.612.099.732-4.793 1.477-10.205 1.115-15.045 0-4.347-1.003-5.56-2.013-6.202-1.983-.548.026-5.53 2-6.68 2-7.389-.007-10.838-4.321-11.68-4.317-.1 0-7.322 2.144-9.73 2.57a63.7 63.7 0 0 1-14.144.899.2.2 0 0 1-.13-.054.2.2 0 0 1-.055-.131.183.183 0 0 1 .184-.184 74.5 74.5 0 0 0 12.88-1.213c.73-3.429 4.928-20.328 5.544-20.698-12.188 2.86-6.815-4.248-12.529-4.1-15.023.382-38.573 8.487-44.467 21.097-2.43 5.193.393 8.413 6.701 10.643 4.999 1.771 9.801 2.166 13.714 3.114 6.865 1.66 3.394 5.679 3.565 10.122.323 8.385 11.212 7.919 15.773 7.544 11.444-.942 23.396-4.575 34.857-6.217 9.243-1.325 5.242 4.675 12.282 6.102 13.236 2.68 34.173-6.976 41.223-12.23 30.744-22.908 12.046-31.195-3.975-30.318m-96.124 8.33c-1.159.322-2.538-.165-3.59-.623a9.3 9.3 0 0 1-3.124-2.082c-2.188 1.94-5.502 3.324-8.41 3.021a.239.239 0 0 1-.063-.468c2.082-.577 5.483-.894 8.156-3.617a.5.5 0 0 1 .705 0c1.632 1.943 4.029 2.481 6.324 3.201a.297.297 0 0 1 .002.569m9.6-6.799a4.96 4.96 0 0 1-3.572-1.056 5.7 5.7 0 0 1-2.766 1.179c-.323.052-.472-.428-.139-.502 2.257-.5 2.61-1.833 3.08-1.475a9 9 0 0 0 3.397 1.383c.22.056.247.431 0 .471m15.147 33.614c-1.26.165-2.64-.652-3.594-1.407a4.5 4.5 0 0 1-.779-.689 7.4 7.4 0 0 1-2.053 1.052c-1.416.586-2.901.99-4.419 1.202-.23.037-.328-.288-.096-.351a21.3 21.3 0 0 0 4.675-1.852c.55-.307 1.086-.83 1.658-1.072.536-.23.817.242 1.189.575 1.072.964 2.401 1.211 3.577 1.954a.32.32 0 0 1-.158.585zm8.93-14.496.024.019zm5.452 1.455c-3.035.497-5.84-1.789-5.764-1.781a28.2 28.2 0 0 1-7.745 1.699c-.297.024-.29-.432 0-.459a20.6 20.6 0 0 0 7.11-1.878c.733-.345.939-.032 1.681.383a15.3 15.3 0 0 0 4.714 1.469c.273.052.282.52.001.566zm33.044 7.224c-1.144.306-3.63-.129-5.298-.681a9 9 0 0 1-2.144-1.034q-.562.392-1.184.684c-1.391.645-3.097 1.433-4.666 1.333a.28.28 0 0 1-.178-.069.28.28 0 0 1-.05-.357.28.28 0 0 1 .152-.116c.817-.328 1.676-.536 2.494-.871 3.389-1.378 3.14-2.091 4.141-1.397 2.576 1.777 4.395 1.149 6.729 1.877a.33.33 0 0 1 .23.314.33.33 0 0 1-.228.315zm10.261-22.206c-2.014.613-4.529-.511-6.254-1.585q-.835.717-1.777 1.288c.426.127.854.255 1.276.4.072.022.134.07.174.133a.316.316 0 0 1-.054.407.32.32 0 0 1-.203.082 7.2 7.2 0 0 1-5.647-2.256 8.86 8.86 0 0 1-5.613 2.554c-.2.011-.22-.278-.045-.334a12.1 12.1 0 0 0 5.368-3.146.44.44 0 0 1 .613 0 7.24 7.24 0 0 0 3.42 1.944c2.148-1.321 2.161-2.05 2.628-1.793a14.6 14.6 0 0 0 6.049 1.827.24.24 0 0 1 .152.066c.042.038.069.09.076.147a.25.25 0 0 1-.035.162.25.25 0 0 1-.131.102zm22.265 6.573c-2.196.36-4.493-.733-6.207-2.063a15.9 15.9 0 0 1-7.125 2.521c-.23.026-.275-.358-.054-.394 3.412-.558 4.594-1.263 6.968-3.089a.464.464 0 0 1 .556.072c2.46 2.001 4.332 1.914 5.862 2.345.278.077.319.556-.002.606z"/><path fill="#94a3b8" d="M97.539 68.545c-1.213-4.804-5.576-6.503-4.882-13.765.216-2.273 3.57-15.39 5.037-19.61.054-.153-.298-1.614-3.46-2.81-1.503-.569-4.028-1.17-5.502-.29-.036.023-3.644 10.058-5.338 14.878a42 42 0 0 1-2.833 6.891c-.717 1.263-1.379 3.022-6.907 4.69-5.184 1.562-6.447 6.693-8.04 11.738-3.762 11.923-8.157 26.06-9.628 35.227-.036.229.293.333.357.098 3.008-11.084 11.215-38.155 12.276-40.583.536-1.23 2.18-4.45 5.806-5.535 2.488-.743 4.666-1.613 6.284-3.765 1.48-1.97 6.699-17.607 8.783-22.949 3.729-.174 4.953 1.092 7.162 2.477-1.34 3.654-2.192 7.51-3.175 11.268-1.13 4.317-2.888 8.883-1.747 13.383 1.219 4.801 5.595 6.242 4.748 13.893-.522 4.72-8.12 29.718-8.464 32.72a.528.528 0 0 0 .975.265c.996-2.254 1.455-4.824 2.11-7.198 5.46-19.678 7.818-25.557 6.438-31.023M92.998 21.54c.367-.306 2.748-.441 4.846.13 1.944.528 3.623 1.732 3.696 2.19.149.953-2.869 9.096-3.161 9.096-.293 0-1.932-1.664-5.076-2.444-1.967-.488-3.525-.19-3.604-.375-.18-.423 2.591-8 3.299-8.596"/><path fill="#94a3b8" d="M64.13 90.096c4.594-1.552 8.64-5.63 11.148-9.666 2.857-4.599 4.113-10.809 3.72-14.513a23 23 0 0 0 2.897 1.237c7.817 3.257 8.485 5.737 10.429 7.57a.364.364 0 0 0 .602-.35c-1.072-3.5-6.328-6.302-9.746-7.724a17.4 17.4 0 0 0-4.634-1.447c-.362-.034-.404.269-.42.437-.484 4.887-.454 12.716-8.3 19.82a43 43 0 0 1-5.909 4.135c-.253.158-.096.604.213.501"/><path fill="#94a3b8" d="M93.024 76.166a.448.448 0 0 0-.875-.118c-.502 1.37-.544 4.63-1.531 8.255-1.782 6.534-7.464 14.538-15.966 19.449a21.8 21.8 0 0 1-6.571-5.13 34.6 34.6 0 0 1-4.844-6.995c4.154.422 8.34-.404 12.021-2.374a16.2 16.2 0 0 0-.4 3.668 13 13 0 0 0 .515 4.824.306.306 0 0 0 .592-.077c.045-1.521-.167-3.031-.163-4.556.005-1.418.33-2.887.286-4.297a33 33 0 0 0 4.34-2.889 27 27 0 0 0 1.333-4.965c.092-.676.153-1.354.195-2.035 1.88-.962 3.868-1.692 5.743-2.652.23-.118.052-.426-.171-.394a14.7 14.7 0 0 0-5.547 2.259 23.4 23.4 0 0 0-2.58-11.425.12.12 0 0 0-.149-.048.12.12 0 0 0-.07.14 29.5 29.5 0 0 1 1.392 14.192c-.218 1.395-.884 4.198-.884 4.198a25.87 25.87 0 0 1-16.75 6.014c-.224 0-.205.287-.177.36a24.4 24.4 0 0 0 4.557 7.592c1.58 1.789 4.842 4.691 7.175 5.214 1.232.276 13.336-7.403 17.018-19.526.403-1.317 1.682-7.24 1.511-8.684"/><path fill="#10b981" d="M79.69 59.729a16.23 16.23 0 0 0-5.403 6.508c-.562 1.233-1.007 2.592-2.039 3.47-1.199 1.02-2.29.216-1.965-1.472a9.4 9.4 0 0 1 3.445-5.36 21 21 0 0 1 5.697-3.082zM67.396 79.791c.03 1.115 2.028 1.489 2.16-.627.078-1.317-2.266-3.415-2.16.627m78.47-33.404c1.833-.785 1.432-2.241.684-2.801-3.215-2.415-9.215-1.455-13.101-.396.3-1.883-2.667-4.11-5.621-4.123-2.953-.014-6.554 1.7-8.882 4.058a12.06 12.06 0 0 0-11.633 1.36 21 21 0 0 0-2.325 1.905zm-83.418 6.001c3.072-1.312-.307-5.3-10.184-2.62.245-1.543-2.189-3.368-4.61-3.382-2.42-.014-5.376 1.394-7.285 3.325a9.89 9.89 0 0 0-9.542 1.114q-1.01.713-1.907 1.563zm-7.274-23.931c2.263-.968 1.767-2.766.843-3.457-3.971-2.98-11.371-1.79-16.161-.488.369-2.323-3.293-5.07-6.934-5.087-3.642-.018-8.084 2.096-10.956 5-4.63-2.075-10.26-1.211-14.352 1.678a26 26 0 0 0-2.866 2.354z"/></svg>