<svg xmlns="http://www.w3.org/2000/svg" width="154" height="154" fill="none" viewBox="0 0 154 154"><path fill="#94a3b8" d="M55.001 58.723c-.163-1.215-.948-1.194-1.102-.777a1.36 1.36 0 0 0 .301 1.046c.19.288.855.142.801-.27m-6.314 68.19a9.94 9.94 0 0 0 3.954 5.384c.285.203.865.416.988.743q.172.904.22 1.822a2.83 2.83 0 0 0 .368 1.494.34.34 0 0 0 .297.1.35.35 0 0 0 .259-.176 2.97 2.97 0 0 0-.009-1.617c-.073-.589-.125-1.176-.22-1.757-.144-.874-1.167-1.187-1.797-1.675a13.9 13.9 0 0 1-3.635-4.493.23.23 0 0 0-.124-.124.23.23 0 0 0-.3.123.23.23 0 0 0-.001.176"/><path fill="#94a3b8" d="M57.215 61.361a.4.4 0 0 0 .23-.147c.416-.588.784-1.086.27-1.732a12.7 12.7 0 0 0-1.83-1.914.2.2 0 0 0-.066-.033c-.438-1.1-.96-2.165-1.56-3.186a.24.24 0 0 0-.09-.09q.093-.8.081-1.608a.44.44 0 0 0-.139-.335c.017-1.715-1.34-2.614-2.77-3.577a7.3 7.3 0 0 0-6.394-.805c-4.25 1.333-6.125 2.559-7.907 10.498-1.652 7.369.418 14.333-2.002 21.91-.42 1.315-.922 1.148.996 2.957 5.372 5.07 11.572 4.129 17.702-.098a.49.49 0 0 0 .22-.536c-3.396-8.467-1.101-13.926-3.66-18.297a.478.478 0 0 0-.817 0c-.804 1.082-2.271.245-2.603-.784a3.15 3.15 0 0 1-.05-1.757c.328-.498 1.149-.3 1.52-.016a.49.49 0 0 0 .58-.077c2.237-1.904 4.324-3.084 5.081-6.495 1.368 3.642 4.13 9.374 2.46 11.16a3.02 3.02 0 0 1-2.827.629 2.5 2.5 0 0 0-.858-.205.333.333 0 0 0-.286.491 1.73 1.73 0 0 0 1.25.629c-.343.93-.392 2.603.335 3.357a.35.35 0 0 0 .58-.343q-.3-.752-.425-1.552c-.033-.474.016-.948-.04-1.422.04 0 .08.008.122.009a4.2 4.2 0 0 0 2.068-.482c2.028-1.106 1.514-3.94.829-6.149M41.677 51.215c-2.719 4.323-1.87 8.36-2.418 10.538a.171.171 0 0 1-.327 0 8.7 8.7 0 0 1-.131-3.21c.167-2.208.516-4.833 1.724-6.674.234-.341.524-.64.858-.883.155-.123.417.034.294.229m9.681 4.648a4.1 4.1 0 0 1-1.136 1.34.265.265 0 0 1-.392-.22c-.064-.97 1.555-2.456 1.969-4.493q.116-.841.106-1.692a.296.296 0 0 1 .547-.147c.99 1.432-.095 3.797-1.094 5.212m5.628 4.788c-.188-.536-.629-1.757-.662-1.83.753 1.026 1.208 1.086.662 1.83"/><path fill="#94a3b8" d="M54.626 72.987c.995-.552 1.343-1.196 2.892-1.324 2.4-.095 4.8.24 7.083.988 5.734 1.608 13.914 4.457 17.923 8.823.27.294.488.067.237-.23-1.276-1.502-2.312-2.09-3.889-3.368a29.2 29.2 0 0 0-6.028-3.407 53 53 0 0 0-6.577-2.246 30.3 30.3 0 0 0-6.993-1.446 7.3 7.3 0 0 0-3.586.465c-1.104.555-1.894 1.56-3.251 1.316a.252.252 0 0 0-.245.416c.678.698 1.688.425 2.434.013m43.011-21.274c1.072-1.334 2.661-6.23 3.243-10.407.056-.4.251-.944-.114-1.225a.3.3 0 0 0-.343-.04c-.424.181-.374.727-.433 1.119-.941 6.31-2.498 8.698-2.728 10.35-.009.176.219.399.375.203m3.194-5.423a.23.23 0 0 0 .139.195.23.23 0 0 0 .237-.043c.269-.222.565-.426.817-.057.354.518.164 2.318.049 2.965-.398 2.242-1.117 2.74-.792 3.325a.196.196 0 0 0 .22.09c.358-.103.456-.442.58-.766.574-1.384.874-2.866.883-4.365-.017-.694-.053-1.627-.744-2.017-.519-.291-1.423-.015-1.389.672m2.884 4.117a11 11 0 0 1-.327 1.52 5 5 0 0 0-.425 1.552c.008.163.212.327.368.212.638-.472.818-1.494.98-2.22.19-.85.286-1.719.286-2.59 0-.588.106-1.52-.441-1.928a.67.67 0 0 0-.684-.094.67.67 0 0 0-.403.56.2.2 0 0 0 .04.12.224.224 0 0 0 .336.033c.577-.556.377 2.093.27 2.835"/><path fill="#94a3b8" d="M105.61 48.364c-.262-.269-.787-.349-.964.05-.048.106.008.276.154.26.62-.062.401 1.21.367 1.594-.336 3.893-2.21 5.293-3.855 7.85-.536.834-1.218 1.65-1.055 2.68a6.7 6.7 0 0 0-2.017-.752 13 13 0 0 0-2.385-.294c.488-.489-1.268-3.814-1.717-5.896a3.13 3.13 0 0 1 .36-2.672c.582-.7 1.543-.76 2.173-1.363a.268.268 0 0 0-.188-.45 3.43 3.43 0 0 0-2.5 1.103c-1.837 1.896-.17 5.345.801 7.622.182.568.428 1.113.735 1.625.113.149.208-.007-.187.173a.415.415 0 0 0-.63-.05c-2.756 2.756-5.02 5.985-7.368 9.084-5.805 7.657-6.474 8.603-7.311 10.057a.177.177 0 0 0 .277.212c3.573-3.728 10.724-14.472 15.015-18.748a.4.4 0 0 0 .099-.147c.965.26 3.278.377 4.721 1.445q.117.084.253.131c-.8 3.7-1.608 7.377-2.736 10.996a85 85 0 0 1-6.61 15.62 11.9 11.9 0 0 1-3.12 3.71c-3.163 2.285-7.549 1.519-11.127.918-14.845-2.474-9.91-1.959-13.307-2.67-.392-.082-.523.185-.153.343 1.049.45 1.804.729 2.818 1.143.722.305 1.476.53 2.247.67-.303 1.233-.415 2.533-.646 3.774a88 88 0 0 1-2.998 11.732 28.7 28.7 0 0 0-8.758-.932 58.6 58.6 0 0 0-11.127 1.586c-4.462-8.194-5.463-13.188-7.491-18.79-.089-.245-.336-.22-.306.082.13 1.055.341 2.098.63 3.12a24.4 24.4 0 0 0-4.453 3.276 4.9 4.9 0 0 0-1.201 1.356.193.193 0 0 0 .26.262c.734-.366 1.827-1.77 5.597-4.158a75.4 75.4 0 0 0 4.412 11.639 4.3 4.3 0 0 0-.866.016 8 8 0 0 0-1.34.098.25.25 0 0 0-.05-.196c-1.239-1.494-7.935-7.268-9.623-8.553a17.7 17.7 0 0 0-3.406-2.246c-.45-.198-.398-.086.024.196s.766.625 1.7 1.29c.554.395 1.118 1.015 1.658 1.43 1.076.827 1.732 1.748 2.756 2.638 4.338 3.781 5.065 4.541 6.233 5.335a15.9 15.9 0 0 0-1.56 5.98c-.766-.513-4.89-.754-12.474-3.513-3.624-1.318-7.982-3.028-10.073-6.07a6.8 6.8 0 0 1-1.258-5.207c.417-1.944 1.725-3.577 2.94-5.097 7.835-9.793 16.41-13.8 18.708-15.268.245-.153.092-.601-.204-.491-8.74 3.271-20.192 14.65-22.049 19.664a7.2 7.2 0 0 0 .326 5.579c1.733 3.742 5.694 5.565 9.314 7.01a69 69 0 0 0 10.89 3.357c1.22.322 2.472.511 3.733.564a.28.28 0 0 0 .237-.13q.04.03.09.038a.2.2 0 0 0 .18-.06.2.2 0 0 0 .049-.085q.157-.553.294-1.102c.424.318.919.549 1.347.873.256.193.9.866 1.185.343.254-.465-.554-.884-.85-1.072a4.4 4.4 0 0 0-1.544-.694q.327-1.486.817-2.925c.124-.367.303-.735.4-1.111a6.2 6.2 0 0 0 1.577.164c.376.013.874.122 1.185-.115 1.505 3.095 1.472 2.61 1.274 2.729-2.773 1.889-4.594 6.058-5.808 9.207a55.7 55.7 0 0 0-3.309 12.294 25.8 25.8 0 0 0-.288 7.021c.058.416.664.278.694-.09.168-2.025.108-4.044.352-6.07a55.3 55.3 0 0 1 5.188-17.049 25.5 25.5 0 0 1 3.48-4.91.1.1 0 0 0 .024-.033.1.1 0 0 1 .016.033.4.4 0 0 0 .52.161.4.4 0 0 0 .15-.128c2.604-.089 10.321-2.272 17.646-.834 2.052.404 2.073.63 2.508.523 0 .327 2.051 5.94 3.071 9.73 2.172 8.068 2.27 12.901 2.712 15.783.065.417.718.303.72-.098.025-5.196-2.557-18.69-6.054-25.553a.24.24 0 0 0-.09-.091q.177-.282.262-.604c2.197-6.211 3.345-13.495 3.333-15.467l6.413 1.102c3.741.646 8.097 1.588 11.706-.098 3.146-1.468 4.811-4.828 6.25-7.793 3.517-7.252 6.613-16.38 7.687-24.165a.25.25 0 0 0-.019-.144.25.25 0 0 0-.095-.109.48.48 0 0 0-.221-.393.26.26 0 0 0 .153-.196c.373-2.277 2.991-4.534 3.978-6.674a11 11 0 0 0 1.038-4.166c-.044-.532.053-1.337-.346-1.749"/><path fill="#10b981" d="M32.824 31.732a1354 1354 0 0 1-12.707-2.756c-.217-.053.077.559-3.197-8.007a24 24 0 0 0-2.27-4.832.904.904 0 0 0-1.545.034 46.7 46.7 0 0 0-4.88 12.507.747.747 0 0 0 1.436.405 77.5 77.5 0 0 1 4.262-10.6c1.207 2.405 4.098 10.949 4.703 11.66.605.71 1.755.721 2.469.869 1.46.298 8.095 1.785 9.524 2.093-2.793 2.196-3.133 2.241-7.26 5.513-1.491 1.183-1.658 1.773-1.243 3.676a102 102 0 0 1 1.323 10.617 104 104 0 0 1-7.895-7.045.92.92 0 0 0-1.24-.031c-3.402 2.652-6.905 5.23-10.192 8.004-.79.665.21 1.987 1.06 1.37 3.292-2.378 6.457-4.99 9.666-7.521a107 107 0 0 0 9.035 7.874.913.913 0 0 0 1.515-.69 117 117 0 0 0-1.59-13.575c-.103-.526-.145-.559.622-1.174 4.046-3.25 6.565-4.816 8.822-6.852a.92.92 0 0 0-.418-1.539"/><path fill="#94a3b8" d="M149.032 53.822c-3.299-2.784-6.838-5.39-10.19-8.007a.917.917 0 0 0-1.24.03 100 100 0 0 1-7.895 7.05c.245-3.202.749-7.63 1.244-10.149.383-1.959.554-2.675-.853-3.872-2.643-2.254-4.977-3.732-7.566-5.777 1.435-.306 10.316-2.245 10.419-2.264 1.243-.214 1.701-.427 2.275-2.166.03-.091 3.226-8.659 3.995-10.193a79 79 0 0 1 4.262 10.606.745.745 0 0 0 .909.483.75.75 0 0 0 .529-.883 46.8 46.8 0 0 0-4.883-12.515.91.91 0 0 0-.765-.448.9.9 0 0 0-.781.419 23.3 23.3 0 0 0-2.22 4.722s-2.804 7.41-3.058 7.969c-.06.13-.146.158-.46.212 0 0-10.513 2.301-12.447 2.7a.9.9 0 0 0-.401 1.517c2.766 2.374 9.402 6.972 9.477 7.548.073.505-1.162 5.375-1.644 14.038a.906.906 0 0 0 1.514.694 105 105 0 0 0 9.036-7.872c3.178 2.506 6.361 5.124 9.669 7.524a.876.876 0 0 0 1.074-1.366"/><path fill="#10b981" d="M116.231 32.007c-4.582-1.123-9.452-.94-13.864-2.729 0-.082-3.44-10.577-4.37-13.291a.153.153 0 0 0-.278-.033c-6.366 13.788-5.328 12.882-5.735 13.267a1.6 1.6 0 0 1-.612.23 85 85 0 0 1-13.129 2.868.153.153 0 0 0-.065.253 86 86 0 0 0 10.596 8.685c-.85 4.175-1.587 8.378-2.298 12.58a.153.153 0 0 0 .254.147c3.237-3.274 7.76-4.983 10.726-8.545l.613.71c.942-5.254 1.148-6.726 2.083-7.163 1.046-.49 1.496.726 1.544 1.536a16.3 16.3 0 0 1-.319 4.135 1.336 1.336 0 0 1 1.969 1.102 1.1 1.1 0 0 1 .85-.04 1.65 1.65 0 0 1 .89 1.347.904.904 0 0 1 1.087.238c.541.626.426 1.797.433 2.565a18.5 18.5 0 0 1-.433 4.093l.196.196q.034.027.076.035.043.005.083-.01a.16.16 0 0 0 .066-.053.16.16 0 0 0 .028-.079c.428-3.292.842-6.585 1.013-9.9.163-3.24-.084-3.254.376-3.67a116 116 0 0 0 8.269-8.225.14.14 0 0 0 .052-.14.15.15 0 0 0-.035-.069.14.14 0 0 0-.066-.04m-42.146-1.599c-4.623-.944-9.501-.344-14.018-1.863 0-.076-2.166-5.306-5.196-12.989a.153.153 0 0 0-.294 0C49.82 27.435 50.112 28.9 49.56 29.216c-.275.158-3.981 1.466-7.279 2.393-2.009.564-4.05 1.014-6.094 1.455a.153.153 0 0 0-.065.253 97 97 0 0 0 11.127 8.005q-.33 2.39-.629 4.779c2.227-.41 5.035.184 6.658 1.863a17.8 17.8 0 0 0 2.891-3.023c2.868 3.031 6.356 5.36 9.452 8.128a.154.154 0 0 0 .226-.027.15.15 0 0 0 .028-.079c.21-3.309.428-6.625.392-9.95-.036-3.262-.288-3.252.14-3.684 2.264-2.292 5.005-5.345 7.733-8.73a.106.106 0 0 0-.055-.19"/></svg>