<svg xmlns="http://www.w3.org/2000/svg" width="154" height="154" fill="none" viewBox="0 0 154 154"><path fill="#10b981" d="M126.899 58.492c-.407 1.85-3.237-4.476-3.14-6.07.049-.818.913-.21 1.849 1.472.928 1.671 1.471 3.78 1.291 4.598m-2.291 3.321a.43.43 0 0 1 .213.295c.016.098-.049.23-.294.31-1.468.577-6.351-.459-7.527-1.472-.703-.605.444-.81 2.536-.507a18.2 18.2 0 0 1 5.072 1.374m-.262 3.256c.818-.261.497.773-.735 2.307-1.233 1.534-2.929 2.995-3.731 3.24s-.437-.814.785-2.34 2.864-2.945 3.681-3.207m9.212-46.745c-4.415-4.68-12.576-4.837-16.836 0-3.186 3.62-3.337 9.081-1.03 13.008v6.418l7.231-1.277c4.123.95 8.739-.113 11.437-3.435 3.373-4.158 2.947-10.739-.802-14.714m-6.021 12.468c-2.438-.065-5.154-.23-6.119-.59-.966-.358.196-.948 2.716-1.095 4.665-.272 10.061 1.864 3.403 1.685m-.327-5.89c-3.011.295-6.414.246-7.625-.114-1.21-.36.245-.908 3.256-1.212s6.416-.252 7.625.115c1.209.368-.246.917-3.256 1.21M31.954 69.29c-.468-.311 1.026-.083-21.156.05a1.19 1.19 0 0 0-1.177 1.194v19.944a1.2 1.2 0 0 0 1.194 1.195h20.503a1.2 1.2 0 0 0 1.194-1.195v-12.68a1.195 1.195 0 0 1 1.39-1.178l8.068.393zM19.306 86.634c-7.133-1.865-8.576-9.817-4.646-10.848 3.93-1.03 5.383 2.749 5.383 2.749s5.717-4.323 7.346 0c2.236 5.935-8.083 8.099-8.083 8.099m6.022-14.218c-3.764.294-8.034.245-9.54-.115s.311-.908 4.075-1.21c3.763-.303 8.034-.252 9.538.114 1.523.37-.31.916-4.073 1.211"/><path fill="#94a3b8" d="M66.803 57.674c-.507.919.406 1.519.655 1.243 2.165-2.397 4.848 1.538 4.824.246-.064-4.058-4.971-2.405-5.479-1.49m10.423 1.31c-.08 1.277 1.907-2.442 3.91.082.23.292 1.148-.23.703-1.178-.445-.95-4.363-2.896-4.613 1.096m5.906 6.594c.09-.803.05-1.244-.049-1.31-.357-.178-1.064 3.837-4.14 8.347-2.114 3.098-5.242 6.173-8.982 5.873-2.666-.214-5.147-2.167-7.051-4.058-1.125-1.117-1.45-1.14-.573.278a13.2 13.2 0 0 0 2.29 2.732c3.507 3.223 7.56 3.353 10.963.995 3.945-2.73 7.063-8.586 7.542-12.857m7.183 19.928c-1.56.419-1.669.682-.066.638 8.45-.23 15.017 1.867 21.957 10.013.475.557.884 1.047 1.261 1.489q.557.76 1.194 1.455c-6.154 6.486-13.506 12.728-21.663 16.492-5.292 2.442-11.605 3.499-9.047 3.403 8.982-.336 17.43-5.835 24.133-11.42a89.6 89.6 0 0 0 16.427-17.949c.391-.573 1.501-1.684 1.374-2.421-.104-.602-1.947-1.838-3.158-3.534-2.015-2.828.077-5.475 2.552-7.052.988-.63 1.455-.933 1.293-.966a2.1 2.1 0 0 0-.703.197c-3.465 1.302-6.087 3.943-4.696 7.363a12.6 12.6 0 0 0 3.191 4.139c-.996 1.898-2.698 3.683-4.059 5.35a111 111 0 0 1-5.252 6.005.5.5 0 0 0-.066-.131c-4.615-9.35-15.112-15.64-24.672-13.07m-14.332-4.304c-.307-.413-.542-.426-.622.082-.496 3.118 4.82 9.475 4.517 7.297-.14-1.013-1.475-3.28-2.618-5.236-.568-.97-.978-1.738-1.278-2.143"/><path fill="#94a3b8" d="M142.95 89.415a48 48 0 0 1-5.481 9.784c-8.943 12.317-12.405 16.88-24.772 26.178-6.638 4.992-13.898 9.79-21.891 12.175-9.718 2.898-20.353 3.27-29.94-.393a27.2 27.2 0 0 1-10.062-6.446c-4.594-4.83-6.857-12.533-5.317-19.061 1.572-6.662 6.601-10.458 6.757-10.962.077-.243-2.22 1.48-4.074 3.78a19.06 19.06 0 0 0-3.763 16.116 21.8 21.8 0 0 0 5.645 11.321c-.311-.31-2.569-.062-3.043-.065-5.462-.039-9.44-.25-22.678.425-.032-2.651-.049-5.283-.08-7.887-.301-24.247-1.685-35.798-2.046-26.08-.23 6.279.54 20.245.54 35.636l.883-.033c8.883 0 13.716-.475 27.111-.475 12.864 9.801 31.251 9.786 45.746 3.845 14.256-5.842 27.006-17.038 35.98-29.516 5.261-7.315 6.885-9.166 8.998-13.645 1.703-3.615 2.773-7.79 1.487-4.697"/><path fill="#94a3b8" d="M136.667 92.262c-.355.511-.311.736.311.536a6.9 6.9 0 0 0 2.634-1.947c3.139-3.514 3.823-8.994 2.585-7.379-.753.982-2.013 3.976-3.649 6.299-.818 1.166-1.532 1.988-1.881 2.49m2.781-9.096c1.483-2.262 1.708-3.64.819-2.994-.89.646-2.738 2.892-4.402 4.892s-2.385 3.2-1.308 2.814 3.413-2.458 4.891-4.712M73.509 68.62c-1.802-.17-2.09.275-.376 1.096a1.964 1.964 0 0 0 2.798-1.701 6 6 0 0 0-.05-.966c-.254-3.374-1.532-5.597-1.784-4.288-.09.821-.09 1.65 0 2.47.24 3.154.272 2.801.18 3.011a.74.74 0 0 1-.768.378m-5.413 4.859c1.87.873 4.175-.828 3.125-1.178-.838-.28-1.882.257-3.092-.654a8.7 8.7 0 0 0-1.391-.982c-.99-.39-.446 1.092.213 1.931.318.369.708.67 1.145.883"/><path fill="#94a3b8" d="m83.263 60.129-6.578.801c-.032 0-.049.016-.065.016a4.76 4.76 0 0 0-4.32-.13s-6.086-.68-6.086-.69l-2.978-1.242c3.516-9.217 12.83-12.91 19.569-5.776a1.23 1.23 0 0 0 1.44.262 8.17 8.17 0 0 0 4.807-7.836c-.886-17.44-20.827-20.55-33.36-14.17-12.534 6.381-15.952 18.36-11.696 27.782 3.708 8.216 12.418 10.668 15.167 11.24 0 4.94.74 10.169 3.714 18.047a32 32 0 0 0 1.849 4.156c.523.933.9 1.391 1.014 1.391.24 0-.536-1.608-1.734-5.776-2.58-8.941-3.854-15.713-2.88-24.869l-.72.098a2.79 2.79 0 0 1-2.47-.867 2.12 2.12 0 0 1-.295-2.16c.523-1.117 1.87-1.202 3.092-.995.542.091.9.18 1.113.213 1.072.884 3.872 3.21 4.518 3.747.67 1.309 1.684 2.494 3.173 2.7 2.093.288 2.91-2.487 3.191-4.156a3.55 3.55 0 0 1 3.485.18c.344 1.668 1.39 4.267 3.452 3.992 2.487-.331 3.613-3.37 4.123-5.207a.56.56 0 0 0-.525-.751m-34.457-5.58c.096 1.178.772 2.979.393 4.123-.082.246-1.864-3.272-1.93-3.501A18.78 18.78 0 0 1 48.2 42.46c2.004-4.536 7.51-8.9 12.794-7.33 1.718.392 1.409.714-.196.932-9.092 1.235-12.761 9.068-11.993 18.487"/><path fill="#94a3b8" d="M22.922 25.18s-.577 50.442 1.211 37.419c.93-6.774.295-20.092.31-35.912 49.023.055 103.916-.814 82.545-1.407-13.22-.369-84.066-.1-84.066-.1m107.855 33.525c.36-2.078.409-7.968.114-13.155-.294-5.187-.842-7.707-1.21-5.628-.368 2.08-.417 7.968-.115 13.154.302 5.187.851 7.706 1.211 5.63m1.685 70.173c-.286-10.734-.852-15.936-1.211-11.633-.32 3.829-.294 11.914-.294 15.478 0 .115-.03.108-.197.114-1.936.077-2.687.118-10.127.311-17.626.46-17.3 1.477-.426 1.506 2.303.004 6.784.033 9.948-.18.726-.049 1.434.005 1.964-.54.557-.576.454-.913.343-5.056M27.667 141.084a3.23 3.23 0 0 0-3.763-1.554c-2.986.79-2.067 6.538 3.01 7.854a.3.3 0 0 0 .197 0c.164-.031 4.162-.897 5.4-3.175a3.07 3.07 0 0 0 .13-2.65c-.813-2.152-3.046-1.716-4.974-.475m4.107 2.733c-.961 1.769-4.14 2.585-4.729 2.732-2.585-.719-3.991-2.847-3.991-4.499a1.59 1.59 0 0 1 1.8-1.783 2.52 2.52 0 0 1 2.24 1.619l.213.524.442-.344c.54-.409 2.175-1.404 3.224-1.096a1.35 1.35 0 0 1 .867.919 2.2 2.2 0 0 1-.062 1.928zm9.98-3.37c-2.587-1.599-6.47.321-6.07 4.253.29 2.847 3.292 3.347 6.103 2.765l3.812.262-2.127-3.007a3.905 3.905 0 0 0-1.718-4.273m2.144 6.298a13 13 0 0 0-2.225-.13c-.033 0-2.81.634-4.27-.409a2.12 2.12 0 0 1-.867-1.604 3.3 3.3 0 0 1 3.223-3.877 3.04 3.04 0 0 1 2.497 1.328 3.04 3.04 0 0 1 .317 2.811zm7.558-2.077 2.65 4.646 3.552-9.604-11.026 2.422zm-2.356-2.209 6.151-1.342-3.533 2.733zm4.843 4.859-1.636-2.847 3.762-2.909zm60.947.786 4.123-4.696 4.499 4.156v-9.359h-8.622zm.851-9.048h6.92v6.561l-3.713-3.42-3.207 3.649zM31.758 21.842c4.484 0 9.122-3.589 9.293-8.688s-4.22-8.776-8.377-9.26c-4.943-.577-9.724 2.879-10.406 7.543-.796 5.43 4.128 10.405 9.49 10.405m-6.168-3.518a8.26 8.26 0 0 1 12.041.28 8.49 8.49 0 0 1-12.041-.28m6.968-13.612c3.782.42 7.784 3.78 7.625 8.393a7.75 7.75 0 0 1-1.964 4.876 9.113 9.113 0 0 0-13.22-.278c-5.167-6.237.712-13.752 7.56-12.99zm17.443 13.436 38.384-.92a4.36 4.36 0 0 0 4.266-4.364 4.09 4.09 0 0 0-4.008-4.074c-8.737-.122-30.007-.372-38.777-.082a4.364 4.364 0 0 0-4.237 4.364v.69A4.41 4.41 0 0 0 50 18.148m-3.518-5.054a3.505 3.505 0 0 1 3.403-3.522c9.691-.286 29.097-.033 38.745.081a3.233 3.233 0 0 1 3.174 3.223 3.484 3.484 0 0 1-3.436 3.518l-38.27.919a3.52 3.52 0 0 1-3.616-3.518z"/><path fill="#94a3b8" d="M30.612 13.285c3.322.78 6.484-3.156 3.616-6.135a3.76 3.76 0 0 0-6.51 2.88 3.81 3.81 0 0 0 2.894 3.255m.557-6.479a3.1 3.1 0 0 1 3.321 3.305 3.08 3.08 0 0 1-3.681 2.356 2.945 2.945 0 0 1-2.226-2.503 3.006 3.006 0 0 1 2.586-3.158m102.275 76.179q-.71.681-1.293 1.473c-.383.587-.277.787.344.523 4.272-1.812 7.082-6.334 7.002-9.571 1.097-5.792 1.496-11.746 1.996-14.562a.84.84 0 0 0-.3-.804.84.84 0 0 0-.848-.128l-11.761 4.695a.83.83 0 0 0-.523.802l.36 16.493a5.97 5.97 0 0 0 5.023 1.08m2.061-17.294a1.6 1.6 0 0 1 1.211 1.603 1.58 1.58 0 0 1-1.407 1.555 1.55 1.55 0 0 1-1.555-1.211 1.72 1.72 0 0 1 1.024-1.811c.23-.098.478-.144.727-.136m-4.892 2.34c.365-1.275.908.26 1.211 3.468.302 3.208.246 6.84-.114 8.117s-.901-.278-1.212-3.469-.255-6.822.115-8.116"/><path fill="#10b981" d="M87.52 86.077c-3.138-.654-6.217 2.667-6.217 2.667s5.743 8.641-3.026 12.864c-7.69 3.699-14.578-6.953-14.578-6.953a13.15 13.15 0 0 0-9.44 4.824 58.3 58.3 0 0 0 10.107 14.987c6.446 6.675 22.268 1.26 22.268 1.26s8.376-3.076 14.25-7.592zM70.6 113.745c-3.667.409-7.082-3.634-8.967-6.267a12.2 12.2 0 0 1-2.045-4.058c-.436-2.264 2.355 1.122 3.96 2.833 4.763 5.071 4.823 4.94 7.346 6.593.722.471.523.808-.294.899"/></svg>